<?xml version="1.0" encoding="UTF-8"?>
<svg xmlns="http://www.w3.org/2000/svg" xmlns:xlink="http://www.w3.org/1999/xlink" width="219pt" height="20pt" viewBox="0 0 219 20" version="1.1">
<defs>
<clipPath id="clip1">
  <path d="M 136 0.300781 L 143 0.300781 L 143 8 L 136 8 Z M 136 0.300781 "/>
</clipPath>
<clipPath id="clip2">
  <path d="M 143 0.300781 L 150 0.300781 L 150 8 L 143 8 Z M 143 0.300781 "/>
</clipPath>
<clipPath id="clip3">
  <path d="M 150 0.300781 L 154 0.300781 L 154 8 L 150 8 Z M 150 0.300781 "/>
</clipPath>
<clipPath id="clip4">
  <path d="M 154 0.300781 L 159 0.300781 L 159 8 L 154 8 Z M 154 0.300781 "/>
</clipPath>
<clipPath id="clip5">
  <path d="M 159 0.300781 L 164 0.300781 L 164 8 L 159 8 Z M 159 0.300781 "/>
</clipPath>
<clipPath id="clip6">
  <path d="M 164 0.300781 L 169 0.300781 L 169 8 L 164 8 Z M 164 0.300781 "/>
</clipPath>
<clipPath id="clip7">
  <path d="M 172 0.300781 L 178 0.300781 L 178 8 L 172 8 Z M 172 0.300781 "/>
</clipPath>
<clipPath id="clip8">
  <path d="M 178 0.300781 L 182 0.300781 L 182 8 L 178 8 Z M 178 0.300781 "/>
</clipPath>
<clipPath id="clip9">
  <path d="M 185 0.300781 L 190 0.300781 L 190 8 L 185 8 Z M 185 0.300781 "/>
</clipPath>
<clipPath id="clip10">
  <path d="M 190 0.300781 L 195 0.300781 L 195 8 L 190 8 Z M 190 0.300781 "/>
</clipPath>
<clipPath id="clip11">
  <path d="M 196 0.300781 L 197 0.300781 L 197 8 L 196 8 Z M 196 0.300781 "/>
</clipPath>
<clipPath id="clip12">
  <path d="M 198 0.300781 L 203 0.300781 L 203 8 L 198 8 Z M 198 0.300781 "/>
</clipPath>
<clipPath id="clip13">
  <path d="M 203 0.300781 L 209 0.300781 L 209 8 L 203 8 Z M 203 0.300781 "/>
</clipPath>
<clipPath id="clip14">
  <path d="M 209 0.300781 L 214 0.300781 L 214 8 L 209 8 Z M 209 0.300781 "/>
</clipPath>
<clipPath id="clip15">
  <path d="M 215 0.300781 L 218.738281 0.300781 L 218.738281 8 L 215 8 Z M 215 0.300781 "/>
</clipPath>
<clipPath id="clip16">
  <path d="M 126 0.300781 L 127 0.300781 L 127 20 L 126 20 Z M 126 0.300781 "/>
</clipPath>
<clipPath id="clip17">
  <path d="M 0 0.300781 L 32 0.300781 L 32 20 L 0 20 Z M 0 0.300781 "/>
</clipPath>
<clipPath id="clip18">
  <path d="M 35 0.300781 L 68 0.300781 L 68 20 L 35 20 Z M 35 0.300781 "/>
</clipPath>
<clipPath id="clip19">
  <path d="M 70 7 L 102.347656 7 L 102.347656 19.917969 L 70 19.917969 Z M 70 7 "/>
</clipPath>
<clipPath id="clip20">
  <path d="M 70 0.351562 L 102.347656 0.351562 L 102.347656 6 L 70 6 Z M 70 0.351562 "/>
</clipPath>
</defs>
<g id="surface1">
<g clip-path="url(#clip1)" clip-rule="nonzero">
<path style=" stroke:none;fill-rule:nonzero;fill:rgb(25.848389%,28.979492%,32.215881%);fill-opacity:1;" d="M 136.558594 0.371094 L 137.914062 0.371094 L 139.660156 5.914062 L 139.683594 5.914062 L 141.46875 0.371094 L 142.785156 0.371094 L 142.785156 7.339844 L 141.949219 7.339844 L 141.949219 1.332031 L 141.929688 1.332031 L 139.949219 7.339844 L 139.3125 7.339844 L 137.414062 1.332031 L 137.398438 1.332031 L 137.398438 7.339844 L 136.558594 7.339844 L 136.558594 0.371094 "/>
</g>
<g clip-path="url(#clip2)" clip-rule="nonzero">
<path style=" stroke:none;fill-rule:nonzero;fill:rgb(25.848389%,28.979492%,32.215881%);fill-opacity:1;" d="M 147.121094 0.371094 L 149.398438 7.339844 L 148.480469 7.339844 L 147.921875 5.523438 L 145.265625 5.523438 L 144.707031 7.339844 L 143.824219 7.339844 L 146.164062 0.371094 Z M 147.691406 4.765625 L 146.621094 1.289062 L 146.601562 1.289062 L 145.503906 4.765625 L 147.691406 4.765625 "/>
</g>
<g clip-path="url(#clip3)" clip-rule="nonzero">
<path style=" stroke:none;fill-rule:nonzero;fill:rgb(25.848389%,28.979492%,32.215881%);fill-opacity:1;" d="M 153.324219 1.378906 C 152.996094 1.179688 152.566406 1.058594 152.136719 1.058594 C 151.476562 1.058594 151.046875 1.507812 151.046875 2.097656 C 151.046875 2.546875 151.226562 2.828125 152.226562 3.40625 C 153.304688 4.027344 153.664062 4.632812 153.664062 5.433594 C 153.664062 6.542969 152.972656 7.410156 151.636719 7.410156 C 151.078125 7.410156 150.546875 7.292969 150.179688 7.113281 L 150.179688 6.203125 C 150.578125 6.441406 151.097656 6.652344 151.507812 6.652344 C 152.296875 6.652344 152.746094 6.125 152.746094 5.554688 C 152.746094 5.015625 152.605469 4.703125 151.667969 4.136719 C 150.40625 3.378906 150.128906 2.949219 150.128906 2.050781 C 150.128906 0.898438 151.007812 0.300781 152.066406 0.300781 C 152.523438 0.300781 153.015625 0.402344 153.324219 0.53125 L 153.324219 1.378906 "/>
</g>
<g clip-path="url(#clip4)" clip-rule="nonzero">
<path style=" stroke:none;fill-rule:nonzero;fill:rgb(25.848389%,28.979492%,32.215881%);fill-opacity:1;" d="M 156.089844 1.128906 L 154.492188 1.128906 L 154.492188 0.371094 L 158.566406 0.371094 L 158.566406 1.128906 L 156.96875 1.128906 L 156.96875 7.339844 L 156.089844 7.339844 L 156.089844 1.128906 "/>
</g>
<g clip-path="url(#clip5)" clip-rule="nonzero">
<path style=" stroke:none;fill-rule:nonzero;fill:rgb(25.848389%,28.979492%,32.215881%);fill-opacity:1;" d="M 159.714844 0.371094 L 162.960938 0.371094 L 162.960938 1.128906 L 160.59375 1.128906 L 160.59375 3.347656 L 162.851562 3.347656 L 162.851562 4.105469 L 160.59375 4.105469 L 160.59375 6.582031 L 163.089844 6.582031 L 163.089844 7.339844 L 159.714844 7.339844 L 159.714844 0.371094 "/>
</g>
<g clip-path="url(#clip6)" clip-rule="nonzero">
<path style=" stroke:none;fill-rule:nonzero;fill:rgb(25.848389%,28.979492%,32.215881%);fill-opacity:1;" d="M 164.539062 0.371094 L 166.328125 0.371094 C 167.066406 0.371094 167.476562 0.550781 167.792969 0.847656 C 168.15625 1.191406 168.316406 1.667969 168.316406 2.179688 C 168.316406 2.917969 167.964844 3.625 166.9375 3.847656 L 166.9375 3.867188 C 167.355469 3.945312 167.554688 4.144531 167.695312 4.542969 L 168.671875 7.339844 L 167.726562 7.339844 L 166.925781 4.984375 C 166.726562 4.40625 166.476562 4.183594 165.816406 4.183594 L 165.417969 4.183594 L 165.417969 7.339844 L 164.539062 7.339844 Z M 165.417969 3.464844 L 166.097656 3.464844 C 167.035156 3.464844 167.394531 2.847656 167.394531 2.238281 C 167.394531 1.457031 166.886719 1.089844 166.117188 1.089844 L 165.417969 1.089844 L 165.417969 3.464844 "/>
</g>
<g clip-path="url(#clip7)" clip-rule="nonzero">
<path style=" stroke:none;fill-rule:nonzero;fill:rgb(25.848389%,28.979492%,32.215881%);fill-opacity:1;" d="M 174.847656 0.300781 C 176.394531 0.300781 177.382812 1.628906 177.382812 3.785156 C 177.382812 6.195312 176.414062 7.410156 174.765625 7.410156 C 173.21875 7.410156 172.230469 6.082031 172.230469 3.925781 C 172.230469 1.519531 173.199219 0.300781 174.847656 0.300781 M 174.765625 6.691406 C 175.683594 6.691406 176.464844 5.933594 176.464844 3.785156 C 176.464844 2.378906 176.023438 1.019531 174.847656 1.019531 C 173.929688 1.019531 173.148438 1.78125 173.148438 3.925781 C 173.148438 5.335938 173.585938 6.691406 174.765625 6.691406 "/>
</g>
<g clip-path="url(#clip8)" clip-rule="nonzero">
<path style=" stroke:none;fill-rule:nonzero;fill:rgb(25.848389%,28.979492%,32.215881%);fill-opacity:1;" d="M 178.820312 0.371094 L 181.9375 0.371094 L 181.9375 1.128906 L 179.699219 1.128906 L 179.699219 3.347656 L 181.828125 3.347656 L 181.828125 4.105469 L 179.699219 4.105469 L 179.699219 7.339844 L 178.820312 7.339844 L 178.820312 0.371094 "/>
</g>
<g clip-path="url(#clip9)" clip-rule="nonzero">
<path style=" stroke:none;fill-rule:nonzero;fill:rgb(25.848389%,28.979492%,32.215881%);fill-opacity:1;" d="M 188.746094 1.378906 C 188.417969 1.179688 187.988281 1.058594 187.558594 1.058594 C 186.902344 1.058594 186.46875 1.507812 186.46875 2.097656 C 186.46875 2.546875 186.652344 2.828125 187.648438 3.40625 C 188.726562 4.027344 189.085938 4.632812 189.085938 5.433594 C 189.085938 6.542969 188.398438 7.410156 187.058594 7.410156 C 186.5 7.410156 185.972656 7.292969 185.601562 7.113281 L 185.601562 6.203125 C 186 6.441406 186.523438 6.652344 186.929688 6.652344 C 187.71875 6.652344 188.167969 6.125 188.167969 5.554688 C 188.167969 5.015625 188.03125 4.703125 187.089844 4.136719 C 185.832031 3.378906 185.550781 2.949219 185.550781 2.050781 C 185.550781 0.898438 186.429688 0.300781 187.488281 0.300781 C 187.949219 0.300781 188.4375 0.402344 188.746094 0.53125 L 188.746094 1.378906 "/>
</g>
<g clip-path="url(#clip10)" clip-rule="nonzero">
<path style=" stroke:none;fill-rule:nonzero;fill:rgb(25.848389%,28.979492%,32.215881%);fill-opacity:1;" d="M 194.621094 7.199219 C 194.199219 7.332031 193.761719 7.410156 193.351562 7.410156 C 191.144531 7.410156 190.214844 5.734375 190.214844 3.847656 C 190.214844 1.667969 191.484375 0.300781 193.300781 0.300781 C 193.800781 0.300781 194.300781 0.390625 194.621094 0.550781 L 194.621094 1.410156 C 194.242188 1.167969 193.800781 1.058594 193.3125 1.058594 C 192.171875 1.058594 191.132812 1.96875 191.132812 3.667969 C 191.132812 5.464844 191.855469 6.652344 193.371094 6.652344 C 193.820312 6.652344 194.261719 6.53125 194.621094 6.324219 L 194.621094 7.199219 "/>
</g>
<g clip-path="url(#clip11)" clip-rule="nonzero">
<path style=" stroke:none;fill-rule:nonzero;fill:rgb(25.848389%,28.979492%,32.215881%);fill-opacity:1;" d="M 196.070312 7.339844 L 196.949219 7.339844 L 196.949219 0.371094 L 196.070312 0.371094 Z M 196.070312 7.339844 "/>
</g>
<g clip-path="url(#clip12)" clip-rule="nonzero">
<path style=" stroke:none;fill-rule:nonzero;fill:rgb(25.848389%,28.979492%,32.215881%);fill-opacity:1;" d="M 198.683594 0.371094 L 201.929688 0.371094 L 201.929688 1.128906 L 199.5625 1.128906 L 199.5625 3.347656 L 201.820312 3.347656 L 201.820312 4.105469 L 199.5625 4.105469 L 199.5625 6.582031 L 202.058594 6.582031 L 202.058594 7.339844 L 198.683594 7.339844 L 198.683594 0.371094 "/>
</g>
<g clip-path="url(#clip13)" clip-rule="nonzero">
<path style=" stroke:none;fill-rule:nonzero;fill:rgb(25.848389%,28.979492%,32.215881%);fill-opacity:1;" d="M 203.5 0.371094 L 204.585938 0.371094 L 207.214844 6.125 L 207.234375 6.125 L 207.234375 0.371094 L 208.074219 0.371094 L 208.074219 7.339844 L 206.984375 7.339844 L 204.359375 1.628906 L 204.335938 1.628906 L 204.335938 7.339844 L 203.5 7.339844 L 203.5 0.371094 "/>
</g>
<g clip-path="url(#clip14)" clip-rule="nonzero">
<path style=" stroke:none;fill-rule:nonzero;fill:rgb(25.848389%,28.979492%,32.215881%);fill-opacity:1;" d="M 213.914062 7.199219 C 213.496094 7.332031 213.054688 7.410156 212.648438 7.410156 C 210.441406 7.410156 209.511719 5.734375 209.511719 3.847656 C 209.511719 1.667969 210.777344 0.300781 212.597656 0.300781 C 213.097656 0.300781 213.59375 0.390625 213.914062 0.550781 L 213.914062 1.410156 C 213.535156 1.167969 213.097656 1.058594 212.605469 1.058594 C 211.46875 1.058594 210.429688 1.96875 210.429688 3.667969 C 210.429688 5.464844 211.148438 6.652344 212.667969 6.652344 C 213.117188 6.652344 213.554688 6.53125 213.914062 6.324219 L 213.914062 7.199219 "/>
</g>
<g clip-path="url(#clip15)" clip-rule="nonzero">
<path style=" stroke:none;fill-rule:nonzero;fill:rgb(25.848389%,28.979492%,32.215881%);fill-opacity:1;" d="M 215.363281 0.371094 L 218.609375 0.371094 L 218.609375 1.128906 L 216.242188 1.128906 L 216.242188 3.347656 L 218.5 3.347656 L 218.5 4.105469 L 216.242188 4.105469 L 216.242188 6.582031 L 218.738281 6.582031 L 218.738281 7.339844 L 215.363281 7.339844 L 215.363281 0.371094 "/>
</g>
<path style=" stroke:none;fill-rule:nonzero;fill:rgb(25.848389%,28.979492%,32.215881%);fill-opacity:1;" d="M 136.558594 19.929688 L 137.4375 19.929688 L 137.4375 12.960938 L 136.558594 12.960938 Z M 136.558594 19.929688 "/>
<path style=" stroke:none;fill-rule:nonzero;fill:rgb(25.848389%,28.979492%,32.215881%);fill-opacity:1;" d="M 139.171875 12.957031 L 140.261719 12.957031 L 142.886719 18.710938 L 142.90625 18.710938 L 142.90625 12.957031 L 143.746094 12.957031 L 143.746094 19.929688 L 142.65625 19.929688 L 140.03125 14.21875 L 140.011719 14.21875 L 140.011719 19.929688 L 139.171875 19.929688 L 139.171875 12.957031 "/>
<path style=" stroke:none;fill-rule:nonzero;fill:rgb(25.848389%,28.979492%,32.215881%);fill-opacity:1;" d="M 148.078125 12.957031 L 151.328125 12.957031 L 151.328125 13.71875 L 148.960938 13.71875 L 148.960938 15.933594 L 151.214844 15.933594 L 151.214844 16.695312 L 148.960938 16.695312 L 148.960938 19.171875 L 151.457031 19.171875 L 151.457031 19.929688 L 148.078125 19.929688 L 148.078125 12.957031 "/>
<path style=" stroke:none;fill-rule:nonzero;fill:rgb(25.848389%,28.979492%,32.215881%);fill-opacity:1;" d="M 153.003906 12.957031 L 154.09375 12.957031 L 156.71875 18.710938 L 156.738281 18.710938 L 156.738281 12.957031 L 157.578125 12.957031 L 157.578125 19.929688 L 156.488281 19.929688 L 153.863281 14.21875 L 153.84375 14.21875 L 153.84375 19.929688 L 153.003906 19.929688 L 153.003906 12.957031 "/>
<path style=" stroke:none;fill-rule:nonzero;fill:rgb(25.848389%,28.979492%,32.215881%);fill-opacity:1;" d="M 163.980469 19.640625 C 163.570312 19.789062 162.871094 20 162.253906 20 C 160.046875 20 159.117188 18.320312 159.117188 16.433594 C 159.117188 14.257812 160.386719 12.886719 162.203125 12.886719 C 162.804688 12.886719 163.363281 12.96875 163.839844 13.199219 L 163.839844 14.074219 C 163.3125 13.804688 162.722656 13.648438 162.210938 13.648438 C 161.074219 13.648438 160.035156 14.554688 160.035156 16.253906 C 160.035156 18.050781 160.753906 19.238281 162.273438 19.238281 C 162.550781 19.238281 162.910156 19.171875 163.140625 19.050781 L 163.140625 16.855469 L 161.972656 16.855469 L 161.972656 16.09375 L 163.980469 16.09375 L 163.980469 19.640625 "/>
<path style=" stroke:none;fill-rule:nonzero;fill:rgb(25.848389%,28.979492%,32.215881%);fill-opacity:1;" d="M 165.816406 19.929688 L 166.695312 19.929688 L 166.695312 12.960938 L 165.816406 12.960938 Z M 165.816406 19.929688 "/>
<path style=" stroke:none;fill-rule:nonzero;fill:rgb(25.848389%,28.979492%,32.215881%);fill-opacity:1;" d="M 168.535156 12.957031 L 169.621094 12.957031 L 172.25 18.710938 L 172.269531 18.710938 L 172.269531 12.957031 L 173.109375 12.957031 L 173.109375 19.929688 L 172.019531 19.929688 L 169.394531 14.21875 L 169.375 14.21875 L 169.375 19.929688 L 168.535156 19.929688 L 168.535156 12.957031 "/>
<path style=" stroke:none;fill-rule:nonzero;fill:rgb(25.848389%,28.979492%,32.215881%);fill-opacity:1;" d="M 174.9375 12.957031 L 178.183594 12.957031 L 178.183594 13.71875 L 175.816406 13.71875 L 175.816406 15.933594 L 178.070312 15.933594 L 178.070312 16.695312 L 175.816406 16.695312 L 175.816406 19.171875 L 178.3125 19.171875 L 178.3125 19.929688 L 174.9375 19.929688 L 174.9375 12.957031 "/>
<path style=" stroke:none;fill-rule:nonzero;fill:rgb(25.848389%,28.979492%,32.215881%);fill-opacity:1;" d="M 179.859375 12.957031 L 183.105469 12.957031 L 183.105469 13.71875 L 180.738281 13.71875 L 180.738281 15.933594 L 182.996094 15.933594 L 182.996094 16.695312 L 180.738281 16.695312 L 180.738281 19.171875 L 183.234375 19.171875 L 183.234375 19.929688 L 179.859375 19.929688 L 179.859375 12.957031 "/>
<path style=" stroke:none;fill-rule:nonzero;fill:rgb(25.848389%,28.979492%,32.215881%);fill-opacity:1;" d="M 184.773438 12.957031 L 186.558594 12.957031 C 187.300781 12.957031 187.710938 13.136719 188.03125 13.4375 C 188.386719 13.777344 188.546875 14.257812 188.546875 14.765625 C 188.546875 15.507812 188.199219 16.214844 187.171875 16.433594 L 187.171875 16.457031 C 187.589844 16.53125 187.789062 16.730469 187.929688 17.132812 L 188.90625 19.929688 L 187.957031 19.929688 L 187.160156 17.574219 C 186.960938 16.992188 186.710938 16.773438 186.050781 16.773438 L 185.652344 16.773438 L 185.652344 19.929688 L 184.773438 19.929688 Z M 185.652344 16.054688 L 186.332031 16.054688 C 187.269531 16.054688 187.628906 15.433594 187.628906 14.824219 C 187.628906 14.046875 187.121094 13.675781 186.351562 13.675781 L 185.652344 13.675781 L 185.652344 16.054688 "/>
<path style=" stroke:none;fill-rule:nonzero;fill:rgb(25.848389%,28.979492%,32.215881%);fill-opacity:1;" d="M 190.253906 19.929688 L 191.132812 19.929688 L 191.132812 12.960938 L 190.253906 12.960938 Z M 190.253906 19.929688 "/>
<path style=" stroke:none;fill-rule:nonzero;fill:rgb(25.848389%,28.979492%,32.215881%);fill-opacity:1;" d="M 192.972656 12.957031 L 194.0625 12.957031 L 196.6875 18.710938 L 196.707031 18.710938 L 196.707031 12.957031 L 197.546875 12.957031 L 197.546875 19.929688 L 196.457031 19.929688 L 193.832031 14.21875 L 193.8125 14.21875 L 193.8125 19.929688 L 192.972656 19.929688 L 192.972656 12.957031 "/>
<path style=" stroke:none;fill-rule:nonzero;fill:rgb(25.848389%,28.979492%,32.215881%);fill-opacity:1;" d="M 203.957031 19.640625 C 203.550781 19.789062 202.847656 20 202.230469 20 C 200.023438 20 199.09375 18.320312 199.09375 16.433594 C 199.09375 14.257812 200.363281 12.886719 202.179688 12.886719 C 202.78125 12.886719 203.339844 12.96875 203.820312 13.199219 L 203.820312 14.074219 C 203.289062 13.804688 202.699219 13.648438 202.191406 13.648438 C 201.050781 13.648438 200.011719 14.554688 200.011719 16.253906 C 200.011719 18.050781 200.734375 19.238281 202.25 19.238281 C 202.53125 19.238281 202.890625 19.171875 203.121094 19.050781 L 203.121094 16.855469 L 201.949219 16.855469 L 201.949219 16.09375 L 203.957031 16.09375 L 203.957031 19.640625 "/>
<g clip-path="url(#clip16)" clip-rule="nonzero">
<path style="fill:none;stroke-width:5;stroke-linecap:butt;stroke-linejoin:miter;stroke:rgb(25.848389%,28.979492%,32.215881%);stroke-opacity:1;stroke-miterlimit:4;" d="M 1266.757812 196.367188 L 1266.757812 0.703125 " transform="matrix(0.1,0,0,-0.1,0,20)"/>
</g>
<g clip-path="url(#clip17)" clip-rule="nonzero">
<path style=" stroke:none;fill-rule:nonzero;fill:rgb(25.848389%,28.979492%,32.215881%);fill-opacity:1;" d="M 5.109375 19.917969 L 0 19.917969 L 0 0.367188 L 6.917969 0.367188 L 15.992188 13.871094 L 24.523438 0.367188 L 31.714844 0.367188 L 31.714844 19.917969 L 26.675781 19.917969 L 26.675781 5.539062 L 17.605469 19.917969 L 14.246094 19.917969 L 5.105469 5.539062 L 5.109375 19.917969 "/>
</g>
<g clip-path="url(#clip18)" clip-rule="nonzero">
<path style=" stroke:none;fill-rule:nonzero;fill:rgb(25.848389%,28.979492%,32.215881%);fill-opacity:1;" d="M 35.308594 5.238281 C 35.308594 3.890625 35.925781 2.746094 37.15625 1.792969 C 38.390625 0.839844 39.890625 0.367188 41.660156 0.367188 L 67.023438 0.367188 L 67.023438 5.539062 L 40.347656 5.539062 L 40.347656 7.890625 L 60.640625 7.890625 C 62.769531 7.890625 64.363281 8.238281 65.429688 8.933594 C 66.492188 9.628906 67.023438 10.824219 67.023438 12.53125 L 67.023438 14.742188 C 67.023438 16.46875 66.417969 17.761719 65.210938 18.625 C 64 19.488281 62.476562 19.917969 60.640625 19.917969 L 35.308594 19.917969 L 35.308594 14.742188 L 61.785156 14.742188 L 61.785156 12.53125 L 41.625 12.53125 C 39.699219 12.484375 38.175781 12.082031 37.054688 11.320312 C 35.9375 10.554688 35.355469 9.414062 35.308594 7.890625 L 35.308594 5.238281 "/>
</g>
<g clip-path="url(#clip19)" clip-rule="nonzero">
<path style=" stroke:none;fill-rule:nonzero;fill:rgb(25.848389%,28.979492%,32.215881%);fill-opacity:1;" d="M 97.902344 14.609375 L 102.332031 14.609375 L 102.332031 19.917969 L 76.96875 19.917969 C 75.199219 19.917969 73.699219 19.441406 72.464844 18.488281 C 71.234375 17.539062 70.621094 16.390625 70.621094 15.046875 L 70.621094 7.757812 L 102.332031 7.757812 L 102.332031 12.394531 L 75.65625 12.394531 L 75.65625 14.609375 L 97.902344 14.609375 "/>
</g>
<g clip-path="url(#clip20)" clip-rule="nonzero">
<path style=" stroke:none;fill-rule:nonzero;fill:rgb(93.595886%,18.060303%,19.245911%);fill-opacity:1;" d="M 70.632812 5.527344 L 70.632812 5.222656 C 70.632812 3.882812 71.25 2.734375 72.480469 1.78125 C 73.714844 0.828125 75.214844 0.351562 76.984375 0.351562 L 102.347656 0.351562 L 102.347656 5.527344 L 70.632812 5.527344 "/>
</g>
</g>
</svg>
